<?xml version="1.0" encoding="utf-8"?>
<svg version="1.1" xmlns:xlink="http://www.w3.org/1999/xlink" width="46px" height="68px" xmlns="http://www.w3.org/2000/svg">
  <defs>
    <filter x="96px" y="494px" width="46px" height="68px" filterUnits="userSpaceOnUse" id="filter73">
      <feOffset dx="0" dy="0" in="SourceAlpha" result="shadowOffsetInner" />
      <feGaussianBlur stdDeviation="1.5" in="shadowOffsetInner" result="shadowGaussian" />
      <feComposite in2="shadowGaussian" operator="atop" in="SourceAlpha" result="shadowComposite" />
      <feColorMatrix type="matrix" values="0 0 0 0 0  0 0 0 0 0  0 0 0 0 0  0 0 0 0.3137254901960784 0  " in="shadowComposite" />
    </filter>
    <g id="widget74">
      <path d="M 40 8.846153846153843  C 40 9.51282051282051  39.755469755469754 10.089743589743584  39.26640926640927 10.576923076923078  L 18.764478764478763 31  L 39.26640926640927 51.42307692307692  C 39.755469755469754 51.91025641025641  40 52.48717948717949  40 53.15384615384615  C 40 53.82051282051282  39.755469755469754 54.3974358974359  39.26640926640927 54.88461538461539  L 32.857142857142854 61.269230769230774  C 32.36808236808237 61.75641025641026  31.78893178893179 62  31.11969111969112 62  C 30.450450450450454 62  29.871299871299875 61.75641025641026  29.382239382239383 61.269230769230774  L 0.7335907335907337 32.730769230769226  C 0.2445302445302449 32.24358974358974  0 31.666666666666664  0 31  C 0 30.333333333333336  0.2445302445302449 29.756410256410252  0.7335907335907337 29.269230769230774  L 29.382239382239383 0.7307692307692291  C 29.871299871299875 0.24358974358974073  30.450450450450454 0  31.11969111969112 0  C 31.78893178893179 0  32.36808236808237 0.24358974358974073  32.857142857142854 0.7307692307692291  L 39.26640926640927 7.115384615384615  C 39.755469755469754 7.602564102564097  40 8.17948717948717  40 8.846153846153843  Z " fill-rule="nonzero" fill="#ffffff" stroke="none" transform="matrix(1 0 0 1 99 497 )" />
    </g>
  </defs>
  <g transform="matrix(1 0 0 1 -96 -494 )">
    <use xlink:href="#widget74" filter="url(#filter73)" />
    <use xlink:href="#widget74" />
  </g>
</svg>