<?xml version="1.0" encoding="utf-8"?>
<svg version="1.1" xmlns:xlink="http://www.w3.org/1999/xlink" width="207px" height="16px" xmlns="http://www.w3.org/2000/svg">
  <g transform="matrix(1 0 0 1 -11 -106 )">
    <path d="M 1.1979166666666776 7.469440832249674  C 0.3993055555555286 7.6081491114000865  0 7.767663632423059  0 7.947984395318596  C 0 8.142175986129171  0.3993055555555286 8.308625921109664  1.1979166666666776 8.447334200260078  L 47.19791666666668 15.812743823146944  C 48.475694444444436 16.006935413957518  49.873263888888886 16.048547897702644  51.39062499999999 15.937581274382314  C 52.90798611111109 15.812743823146944  53.66666666666668 15.611616818378845  53.66666666666668 15.334200260078024  L 53.66666666666668 10.673602080624187  L 203.16666666666669 10.673602080624187  C 204.28472222222223 10.673602080624187  205.203125 10.611183355006503  205.921875 10.48634590377113  C 206.640625 10.36150845253576  207 10.201993931512785  207 10.00780234070221  L 207 6.01300390117035  C 207 5.818812310359775  206.640625 5.659297789336801  205.921875 5.534460338101431  C 205.203125 5.40962288686606  204.28472222222223 5.347204161248374  203.16666666666669 5.347204161248374  L 53.66666666666668 5.347204161248374  L 53.66666666666668 0.6866059817945391  C 53.66666666666668 0.395318595578674  52.90798611111109 0.19419159081057558  51.39062499999999 0.08322496749024744  C 49.873263888888886 -0.027741655830084255  48.475694444444436 0.0069354139575192875  47.19791666666668 0.1872561768530563  L 1.1979166666666776 7.469440832249674  Z " fill-rule="nonzero" fill="#ffffff" stroke="none" transform="matrix(1 0 0 1 11 106 )" />
  </g>
</svg>