<?xml version="1.0" encoding="utf-8"?>
<svg version="1.1" xmlns:xlink="http://www.w3.org/1999/xlink" width="207px" height="16px" xmlns="http://www.w3.org/2000/svg">
  <g transform="matrix(1 0 0 1 -8 -106 )">
    <path d="M 205.80208333333331 7.469440832249674  C 206.60069444444449 7.6081491114000865  207.00000000000006 7.767663632423059  207 7.947984395318596  C 207.00000000000006 8.142175986129171  206.60069444444449 8.308625921109664  205.80208333333331 8.447334200260078  L 159.80208333333331 15.812743823146944  C 158.52430555555557 16.006935413957518  157.12673611111111 16.048547897702644  155.609375 15.937581274382314  C 154.0920138888889 15.812743823146944  153.33333333333331 15.611616818378845  153.33333333333331 15.334200260078024  L 153.33333333333331 10.673602080624187  L 3.833333333333333 10.673602080624187  C 2.715277777777778 10.673602080624187  1.796875 10.611183355006503  1.078125 10.48634590377113  C 0.359375 10.36150845253576  0 10.201993931512785  0 10.00780234070221  L 0 6.01300390117035  C 0 5.818812310359775  0.359375 5.659297789336801  1.078125 5.534460338101431  C 1.796875 5.40962288686606  2.715277777777778 5.347204161248374  3.833333333333333 5.347204161248374  L 153.33333333333331 5.347204161248374  L 153.33333333333331 0.6866059817945391  C 153.33333333333331 0.395318595578674  154.0920138888889 0.19419159081057558  155.609375 0.08322496749024744  C 157.12673611111111 -0.027741655830084255  158.52430555555557 0.0069354139575192875  159.80208333333331 0.1872561768530563  L 205.80208333333331 7.469440832249674  Z " fill-rule="nonzero" fill="#333333" stroke="none" transform="matrix(1 0 0 1 8 106 )" />
  </g>
</svg>