<?xml version="1.0" encoding="utf-8"?>
<svg version="1.1" xmlns:xlink="http://www.w3.org/1999/xlink" width="42px" height="62px" xmlns="http://www.w3.org/2000/svg">
  <defs>
    <filter x="2px" y="-3px" width="42px" height="62px" filterUnits="userSpaceOnUse" id="filter65">
      <feOffset dx="0" dy="0" in="SourceAlpha" result="shadowOffsetInner" />
      <feGaussianBlur stdDeviation="1.5" in="shadowOffsetInner" result="shadowGaussian" />
      <feComposite in2="shadowGaussian" operator="atop" in="SourceAlpha" result="shadowComposite" />
      <feColorMatrix type="matrix" values="0 0 0 0 0  0 0 0 0 0  0 0 0 0 0  0 0 0 0.3137254901960784 0  " in="shadowComposite" />
    </filter>
    <g id="widget66">
      <path d="M 36 7.990074441687343  C 36 8.59222497932175  35.77992277992278 9.113316790736139  35.33976833976834 9.553349875930522  L 16.888030888030887 28  L 35.33976833976834 46.44665012406948  C 35.77992277992278 46.88668320926385  36 47.40777502067825  36 48.00992555831266  C 36 48.61207609594706  35.77992277992278 49.133167907361454  35.33976833976834 49.57320099255583  L 29.57142857142857 55.339950372208435  C 29.131274131274132 55.779983457402814  28.61003861003861 56  28.00772200772201 56  C 27.40540540540541 56  26.884169884169886 55.779983457402814  26.444015444015445 55.339950372208435  L 0.6602316602316602 29.563275434243174  C 0.22007722007722041 29.123242349048798  0 28.602150537634408  0 28  C 0 27.397849462365592  0.22007722007722041 26.8767576509512  0.6602316602316602 26.436724565756826  L 26.444015444015445 0.6600496277915617  C 26.884169884169886 0.22001654259718517  27.40540540540541 0  28.00772200772201 0  C 28.61003861003861 0  29.131274131274132 0.22001654259718517  29.57142857142857 0.6600496277915617  L 35.33976833976834 6.426799007444169  C 35.77992277992278 6.866832092638539  36 7.387923904052928  36 7.990074441687343  Z " fill-rule="nonzero" fill="#dbff75" stroke="none" transform="matrix(1 0 0 1 5 0 )" />
    </g>
  </defs>
  <g transform="matrix(1 0 0 1 -2 3 )">
    <use xlink:href="#widget66" filter="url(#filter65)" />
    <use xlink:href="#widget66" />
  </g>
</svg>