<?xml version="1.0" encoding="UTF-8"?><svg id="a" xmlns="http://www.w3.org/2000/svg" viewBox="0 0 416 480"><defs><style>.b{stroke-miterlimit:10;}.b,.c{fill:none;stroke:#fff;stroke-linecap:round;stroke-width:32px;}.c{stroke-linejoin:round;}</style></defs><polyline class="c" points="153.14 48 208 16 262.86 48"/><line class="b" x1="208" y1="16" x2="208" y2="96"/><polyline class="c" points="262.86 432 208 464 153.14 432"/><line class="b" x1="208" y1="464" x2="208" y2="384"/><polyline class="c" points="16 191.51 16 128 69.15 96.49"/><line class="b" x1="16" y1="128" x2="83.29" y2="168"/><polyline class="c" points="400 288.49 400 352 346.85 383.51"/><line class="b" x1="400" y1="352" x2="332.71" y2="312"/><polyline class="c" points="69.15 384 16 352 16 288.49"/><line class="b" x1="16" y1="352" x2="82.64" y2="312"/><polyline class="c" points="346.85 96.49 400 128 400 191.51"/><line class="b" x1="400" y1="128" x2="332.71" y2="168"/><polyline class="b" points="208 304 208 240 262.86 208"/><line class="b" x1="208" y1="240" x2="153.14" y2="208"/></svg>